<?xml version="1.0" encoding="UTF-8" standalone="no"?>
<svg class="home-icon" version="1.1" id="Livello_1" xmlns="http://www.w3.org/2000/svg" xmlns:xlink="http://www.w3.org/1999/xlink" x="0px" y="0px"
   viewBox="-208 210.3 141.7 141.7" xml:space="preserve">
<g id="Livello_26">
  <path d="M-145.6,313.7c0-0.6,0.4-1,1-1h14.5c0.6,0,1,0.5,1,1c0,0.6-0.5,1-1,1h-14.5
    C-145.2,314.7-145.6,314.3-145.6,313.7 M-87.2,307.3h-100.7v-67.4h100.7L-87.2,307.3L-87.2,307.3z M-67.2,314.2
    c0-1.5-1.2-2.7-2.7-2.7v-0.2h-14.4c0.7-0.3,1.2-1.1,1.2-1.9v-71.7c0-1.2-0.9-2.1-2.1-2.1H-190c-1.2,0-2.1,0.9-2.1,2.1v71.7
    c0,0.9,0.5,1.6,1.2,1.9h-13.9v0.2c-1.5,0-2.7,1.2-2.7,2.7c0,1.5,1.2,2.7,2.7,2.7h134.9C-68.4,316.9-67.2,315.7-67.2,314.2"/>
</g>
<g id="Livello_1_1_">
</g>
</svg>