<?xml version="1.0" encoding="UTF-8" standalone="no"?>
<svg class="home-icon" version="1.1" id="Layer_1" xmlns="http://www.w3.org/2000/svg" xmlns:xlink="http://www.w3.org/1999/xlink" x="0px" y="0px"
   viewBox="-23 25 512 512" xml:space="preserve">
<style type="text/css">
  .st1{stroke:#5D6F7D;stroke-miterlimit:10;}
  .st2{stroke:#5D6F7D;stroke-width:11;stroke-miterlimit:10;}
</style>
<g>
  <g>
    <path d="M196.5,296.4L65.1,353.7v-37l91.9-36.1l-91.9-35.6v-36.7l131.5,56.7V296.4z"/>
    <path class="st1" d="M362,385H74.1c-4.9,0-9-4-9-9l0,0c0-5,4-9,9-9H362c5,0,9,4,9,9l0,0C371,381,367,385,362,385z"/>
    <path class="st2" d="M407,424H41c-6.6,0-12-5.4-12-12V182c0-6.6,5.4-12,12-12h366c6.6,0,12,5.4,12,12v230
      C419,418.6,413.6,424,407,424z"/>
  </g>
</g>
</svg>